<?xml version="1.0" encoding="utf-8"?>
<!-- Generator: Adobe Illustrator 27.4.0, SVG Export Plug-In . SVG Version: 6.00 Build 0)  -->
<svg version="1.1" id="Слой_1" fill="white" xmlns="http://www.w3.org/2000/svg" xmlns:xlink="http://www.w3.org/1999/xlink" x="0px" y="0px"
	 viewBox="0 0 2000 2000" style="enable-background:new 0 0 2000 2000;" xml:space="preserve">
<style type="text/css">
	.st0{opacity:0.3;fill:#E4FC00;}
	.st1{opacity:0.5;}
	.st2{fill:#0155A5;}
</style>
<path d="M1705,764.5h-351.68l-57.66-333.66H788.09L730.43,764.5H378.75v222.44h92.81l109.87,565.1h0l5.46,28.08h656.8h57.66h195.5
	l115.33-593.18H1705V764.5z M834.35,504.98h415.04l44.85,259.51H789.5L834.35,504.98z M1243.7,1098.16h-172.99V986.94h172.99
	V1098.16z M1243.7,1283.53h-172.99v-111.22h172.99V1283.53z M1301.36,1172.31h215.35l-21.62,111.22h-193.73V1172.31z
	 M567.04,1172.31h215.35v111.22H588.67L567.04,1172.31z M603.08,1357.67h179.31v148.29H631.92L603.08,1357.67z M840.05,1357.67
	h172.99v148.29H840.05V1357.67z M840.05,1283.53v-111.22h172.99v111.22H840.05z M1013.04,1098.16H840.05V986.94h172.99V1098.16z
	 M782.39,1098.16H552.63L531,986.94h251.39V1098.16z M1070.71,1505.97v-148.29h172.99v148.29H1070.71z M1301.36,1505.97v-148.29
	h179.31l-28.83,148.29H1301.36z M1531.12,1098.16h-229.77V986.94h251.39L1531.12,1098.16z M1647.34,912.79h-20.74H457.15h-20.74
	v-74.15h281.21h648.51h281.21V912.79z"/>
</svg>
