<svg version="1.1" id="Слой_1" xmlns="http://www.w3.org/2000/svg" xmlns:xlink="http://www.w3.org/1999/xlink" x="0px" y="0px"
	 viewBox="0 0 2000 2000" style="enable-background:new 0 0 2000 2000;" xml:space="preserve">
<style type="text/css">
	.st0{opacity:0.3;fill:#E4FC00;}
	.st1{opacity:0.5;}
	.st2{fill:#0155A5;}
</style>
<g>
	<path class="st2" d="M1669,1669.12c-446.48,0-891.41,0-1337.61,0c0-446.49,0-892.1,0-1339.08c445.85,0,891.2,0,1337.61,0
		C1669,776.29,1669,1221.92,1669,1669.12z M1592.37,1591.38c0-8.2,0-14.15,0-20.09c0-380.92-0.12-761.83,0.37-1142.75
		c0.02-17.62-5.3-22.03-22.39-22.01c-380.06,0.44-760.13,0.45-1140.19-0.02c-17.21-0.02-22.32,4.45-22.29,21.98
		c0.48,380.92,0.36,761.83,0.4,1142.75c0,6.42,0.55,12.83,0.89,20.14C803.71,1591.38,1196.7,1591.38,1592.37,1591.38z"/>
	<path class="st2" d="M1263.72,777.05c2.11,31.1-11.97,57.19-42.09,80.38c18.93-2.66,32.27-4.53,45.6-6.4
		c1.48,1.74,2.95,3.49,4.43,5.23c-7.37,11.13-14.73,22.27-22.19,33.55c7.72,2.73,17.8,6.29,27.87,9.85c0.56,1.93,1.11,3.86,1.67,5.8
		c-10.74,7.23-21.48,14.45-33.02,22.21c4.99,7.88,10.79,17.04,19.76,31.2c-16.7-1.2-28.05-2.02-40.25-2.9
		c1.24,6.94,3.59,14.77,3.86,22.66c0.58,16.7-6.47,20.59-21.01,11.86c-5.57-3.34-10.3-8.09-16.42-13.01
		c-3.11,7.9-6.18,15.66-10.24,25.95c-8.89-6.28-15.92-11.24-21.85-15.43c-8.51,4.65-16.62,9.08-24.74,13.51
		c-2.55-7.49-5.09-14.98-8.1-23.81c-3.11-1.03-8.05-2.66-14.47-4.79c7.94-13.24,8.28-32.23,32.82-24.03
		c9.94,3.32,22.78,0.64,33.63-2.03c19.79-4.87,24.1-13.66,18.01-33.31c-2.82-9.11-6.95-17.83-10.76-26.6
		c-11.17-25.69-7.84-35.47,13.16-52.62C1221.53,816.26,1242.18,796.37,1263.72,777.05z"/>
	<path class="st2" d="M874.85,950.11c2.29,4.2,6.78,12.44,12.11,22.24c-5.99,2.12-10.81,3.83-15.79,5.59
		c-1.13,7.48-2.34,15.46-4.25,28.03c-10.76-7.7-18.55-13.28-26.51-18.98c-5.95,4.56-12.54,9.61-21.77,16.69
		c-3.72-9.71-6.73-17.56-9.67-25.23c-10.17,5.97-21.32,12.52-32.47,19.07c-2.02-1.19-4.03-2.38-6.05-3.56
		c0.54-12.37,1.09-24.74,1.66-37.65c-9.17,0.78-20.11,1.7-36.9,3.12c7.46-13.66,12.57-23.01,17.72-32.44
		c-10.09-6.55-21.14-13.72-32.18-20.89c0.2-1.86,0.41-3.71,0.61-5.57c10.24-3.75,20.49-7.49,29.87-10.93
		c-7.45-9.91-15.65-20.81-23.84-31.71c1.1-2.12,2.2-4.25,3.29-6.37c14.01,1.64,28.02,3.28,45.01,5.27
		c-26.18-22.83-43.42-48.47-39.85-79.64c23.68,20.89,49.06,42.94,74.01,65.47c10.32,9.32,13.35,20.89,7.71,34.35
		c-5.56,13.27-10.59,26.76-15.79,40.18c-5.93,15.28,0.39,25.88,15.09,28.49C834.75,948.8,853.23,948.61,874.85,950.11z"/>
	<path class="st2" d="M1451.99,580.39c8.76,40.15,8.43,77.73-15.31,111.87c-30.83,44.34-67.33,82.34-117.49,105.88
		c7.66-35.47,36.21-52.94,59.03-74.93c18.32-17.66,32.31-37.8,41.09-61.32c-1.8-1.54-3.61-3.07-5.41-4.61
		c-12.86,14.03-26.15,27.71-38.47,42.2c-12.77,15.02-24.61,30.84-37.36,46.96C1333.72,720.16,1407.52,612.99,1451.99,580.39z"/>
	<path class="st2" d="M548.19,580.17c42.58,32.53,114.05,135.25,116.32,169.55c-14.44-18.07-26.53-34.05-39.54-49.24
		c-12.95-15.13-26.82-29.47-40.28-44.16c-2.3,1.76-4.6,3.52-6.9,5.29c11.2,17.13,21.79,34.7,33.85,51.2
		c6.31,8.63,15.55,15.06,22.89,23.01c17.03,18.46,33.71,37.24,50.53,55.89c-1.87,2.27-3.75,4.53-5.62,6.8
		c-12.85-7.84-27.43-13.82-38.19-23.88c-24.94-23.32-49.32-47.49-71.55-73.36C539.68,666.32,538.51,624.78,548.19,580.17z"/>
	<path class="st2" d="M535.37,735.75c29.69,41.7,76.14,61.53,120.03,86.48c-3.71,2.6-4.69,3.83-5.35,3.67
		c-57.17-13.31-106.33-41.05-146.11-84.05c-17.64-19.07-23.77-53.48-16.96-75.57c31.53,9.31,149.56,113.77,152.49,134.66
		c-33.15-23.66-66.51-47.47-99.86-71.28C538.19,731.68,536.78,733.71,535.37,735.75z"/>
	<path class="st2" d="M1346.71,824.95c40.75-28.39,88.46-46.76,116.56-90.85c-40.3,13.51-68.6,45.67-103.97,67.9
		c4.72-22.02,120.31-124.38,154.43-136.65c3.53,26.63,1.7,52.41-15.68,73.05C1458.47,785.43,1405.91,811.44,1346.71,824.95z"/>
	<path class="st2" d="M660.88,878.41c-74.76-23.37-161.11-17.83-216.18-88.06c80.65-1.75,152.51,30.29,225.86,56.51
		c-0.26,1.8-0.53,3.6-0.79,5.4c-9.73-0.93-19.84-0.49-29.14-3.03c-30.81-8.43-61.32-17.94-92.74-24.43
		C579.06,857.65,629.72,847.23,660.88,878.41z"/>
	<path class="st2" d="M1450.55,822.45c-30.23,8.88-60.36,18.11-90.75,26.42c-9.46,2.59-19.59,2.68-29.93,1.04
		c72.31-29.7,144.09-60.37,228.13-62.7c-5.43,7.55-8.38,12.88-12.46,17.12c-23.72,24.62-53.66,37.98-86.17,46.27
		c-38.68,9.86-77.45,19.38-116.99,29.25c-0.48-17.62,12.59-17.2,22.6-20.18c23.45-6.99,47.02-13.58,70.37-20.88
		c6.04-1.89,11.44-5.79,17.13-8.76C1451.83,827.5,1451.19,824.98,1450.55,822.45z"/>
	<path class="st2" d="M973.79,1341.52c18.06,32.4,34.4,61.73,52.12,93.51c4.65-5.57,8.53-9.67,11.78-14.22
		c28.35-39.61,56.77-79.17,84.63-119.11c3.92-5.62,4.95-13.25,8.81-24.17c3.26-1.18,11.45-4.13,21.12-7.62c0,10.58,0,18.86,0,23.9
		c-8.11,6.17-16.32,9.95-20.98,16.33c-35.03,48.05-69.37,96.6-105.53,147.26c-17.67-31.11-34.51-60.76-53.48-94.18
		c-12.77,27.04-37.75,42.81-37.42,74.2c-6.39,2.42-14.59,5.53-24.37,9.24c0-10.33,0-19.03,0-24.37c7.33-5.45,14.47-8.59,18.36-14.04
		C943.78,1387.32,957.68,1365.64,973.79,1341.52z"/>
	<path class="st2" d="M1280.91,1324.78c17.15-9.14,17.16-24.84,13.98-40.42c-3.35-16.48-19.83-29.02-36.39-30.06
		c-22.5-1.41-34.31,7.08-46.78,33.62c-5.74-10.23-2.67-19.77,9.81-30.45c21.23-18.17,44.25-15.89,75.89,7.52
		c0.97-17.95-7.31-32.49-26.51-46.49c13.3-11.24,26.6-22.49,39.77-33.64c31.26,59.3,25.93,106.14-20.96,150.01
		c-7.58,7.09-24.57,4.13-37.22,5.81c-0.11-1.53-0.22-3.06-0.33-4.59c9.76-3.95,19.51-7.9,29.27-11.85L1280.91,1324.78z"/>
	<path class="st2" d="M749.95,1335.31c-23.46,8.41-34.17,4.83-48.32-11.04c-23.01-25.8-38.68-54.04-30.71-89.77
		c3.97-17.79,10.8-34.94,16.04-51.44c13.58,11.62,27.08,23.16,38.62,33.03c-9.45,15.37-19.72,32.08-29.99,48.78
		c1.44,0.86,2.88,1.73,4.32,2.59c30.78-24.48,53.17-28.95,73.71-13c10.93,8.49,23.03,18.04,16.29,34.7
		c-7.16-9.48-12.31-21.37-21.36-26.91c-9.32-5.7-22.66-7.8-33.83-6.82c-17.86,1.56-32.2,21.85-31.94,40.5
		C703.1,1318.29,713.9,1327.76,749.95,1335.31z"/>
	<path class="st2" d="M1344.75,893.08c51.73-23.77,167.7-36.01,207.68-22.55c-58.87,41.48-123.78,45.81-191.72,35.26
		c31.1-4.51,62.2-9.01,93.3-13.52c-0.19-1.69-0.37-3.38-0.56-5.07C1416.79,877.97,1380.89,889.2,1344.75,893.08z"/>
	<path class="st2" d="M546.43,892.54c30.38,4.35,60.76,8.69,91.14,13.04c-67.36,11.29-131.43,5.83-193.47-37.02
		c75.64-7.51,144.77-1.37,211.84,24.31c-36.28-3.45-72.19-14.8-108.94-5.77C546.8,888.9,546.62,890.72,546.43,892.54z"/>
	<path class="st2" d="M639.22,923.46c-25.19,4.14-50.39,8.27-75.58,12.41c0.37,2.85,0.73,5.69,1.1,8.54
		c34.82-3.39,69.65-6.79,107.99-10.52c-24.06,23.75-152.27,35.71-204.21,21.37C521.85,919.13,581.46,926.22,639.22,923.46z"/>
	<path class="st2" d="M1331.49,933.11c15.53,2.16,31.01,4.8,46.61,6.36c18.93,1.89,37.95,2.88,56.93,4.26
		c0.37-2.46,0.74-4.91,1.11-7.37c-25.39-4.36-50.78-8.71-73.78-12.66c32.16-11.16,139.72,8.29,169.57,33.55
		c-70.2,11.24-136.11,1.81-201.43-14.2C1330.83,939.74,1331.16,936.42,1331.49,933.11z"/>
	<path class="st2" d="M1496.43,1029.55c-39.4,4.2-108.6-18.62-160.95-54.88c28.3,8.01,56.6,16.03,84.91,24.04
		c1-2.68,2.01-5.36,3.01-8.04c-22.31-10.15-44.62-20.3-67.39-30.65C1410.07,967.22,1463.82,973.82,1496.43,1029.55z"/>
	<path class="st2" d="M502.65,1030.54c32.26-55.65,85.24-63.33,140.51-70.38c-23.22,10.52-44.87,20.33-66.52,30.14
		c0.94,2.74,1.88,5.48,2.82,8.22c28.4-7.99,56.81-15.98,85.21-23.96c0.47,1.71,0.93,3.41,1.4,5.11
		C612.4,995.99,566.64,1035.68,502.65,1030.54z"/>
	<path class="st2" d="M717.59,1027.68c-36.61,28.9-47.85,84.98-105.54,93.65c-0.2-22.57,7.24-41.85,21.03-56.85
		c19.41-21.11,41.09-40.24,62.81-59.04c4.41-3.82,13.32-2.46,21.14-1c-24.36,20.87-54.25,34.39-69.09,63.99
		c1.23,1.63,2.45,3.26,3.68,4.89c20.95-16.28,41.89-32.56,62.84-48.85C715.5,1025.54,716.54,1026.61,717.59,1027.68z"/>
	<path class="st2" d="M1283.71,1001.53c8.03,2.07,18.03,1.8,23.72,6.62c20.16,17.04,39.93,34.82,57.75,54.24
		c14.26,15.54,21.88,35.21,22.9,58.82c-58.42-8.09-69.46-65.09-106.1-93.98c1.09-1.36,2.18-2.72,3.27-4.09
		c10.14,8.87,19.91,18.22,30.53,26.47c10.62,8.26,22.1,15.42,34.52,21.28c-13.29-31.4-41.75-45.95-68.26-62.61
		C1282.6,1006.03,1283.15,1003.78,1283.71,1001.53z"/>
	<path class="st2" d="M1391.83,1034.09c-16.79-13.83-33.58-27.66-47.03-38.73c59.08,17.07,94.81,46.94,101.81,88.45
		c-57.18-0.52-84.53-47.02-121.93-77.7c20.67,11.73,41.35,23.46,62.02,35.2C1388.41,1038.9,1390.12,1036.49,1391.83,1034.09z"/>
	<path class="st2" d="M551.57,1083.82c15.06-51.74,53.6-73.19,98.61-86.51c-13.94,12.36-28.24,25.03-42.53,37.7
		c1.66,2.27,3.32,4.54,4.98,6.81c22.3-13.03,44.6-26.06,66.91-39.09C640.08,1033.4,612.72,1082.89,551.57,1083.82z"/>
	<path class="st2" d="M773.48,1341.57c-17.38-7.93-34.76-15.85-52.71-24.03c9.09-11.23,20.69-12.71,34.65-4.94
		c20.9,11.63,26.12,9.62,36.94-11.7c11.64-22.95,22.83-46.2,35.97-68.28c8.18-13.74,17.28-12.1,23.18,2.19
		c6.35-1.19,12.7-2.37,20.14-3.77c-18.59,16.71-37.8,29.82-51.34,47.31c-13.65,17.64-21.67,39.62-33.74,62.73
		c-1.93,0-7.77,0-13.61,0L773.48,1341.57z"/>
	<path class="st2" d="M1281.45,1324.23c-15.92,3.87-32.47,6.1-47.59,12.01c-19.54,7.64-22.28,7.2-29.82-11.56
		c-15.23-37.87-33.68-73.31-76.81-87.36c0.32-1.47,0.65-2.93,0.97-4.4c6.43,0.32,12.85,0.64,19.75,0.98
		c8.29-13.98,15.4-14.94,24.45,0.28c12.8,21.53,23.66,44.23,34.95,66.63c11.01,21.84,15.35,23.43,36.82,11.9
		c17.74-9.53,30.14-5.45,36.73,12.06C1280.91,1324.78,1281.45,1324.23,1281.45,1324.23z"/>
	<path class="st2" d="M1026.04,723.77c5.93-4,11.85-8,17.45-11.78c-1.52-8.67-2.92-16.58-3.94-22.38c31.1,0,62.51,0,93.97,0
		c2.21,22.37-7.39,27.26-28.5,33.76c-17.86,5.5-29.67,5.1-42.9-6.27c-1.24-1.07-5.95,1.92-9.06,2.98
		c-8.54,2.92-17.08,5.82-25.63,8.73C1026.98,727.13,1026.51,725.45,1026.04,723.77z"/>
	<path class="st2" d="M863.49,689.87c31.91,0,63.8,0,96.25,0c-0.85,5.77-1.95,13.22-3.27,22.24c5.11,3.51,11.34,7.79,17.56,12.07
		c-0.55,1.57-1.1,3.13-1.65,4.7c-11.31-3.91-22.63-7.83-31.23-10.8c-11.93,3.4-23.1,9.2-34.29,9.25
		C881.92,727.42,863.9,717.04,863.49,689.87z"/>
	<path class="st2" d="M1321.63,729.99c17.48,34.7-20.79,83.92-60.42,99.14C1276.36,792.49,1274.01,746.26,1321.63,729.99z"/>
	<path class="st2" d="M675.71,729.03c48.17,16.64,47.78,61.06,61.56,97.59C698.45,817.91,670.85,774.61,675.71,729.03z"/>
	<path class="st2" d="M672.35,1140.86c-2.65-37.56,38.09-103.97,67.75-107.47c-17.66,23.59-43.01,41.34-42.08,75.24
		c9.11-9.91,17.96-20.08,27.4-29.65c8.21-8.32,9.58-23.73,26.51-27.17C723.38,1108.28,714.68,1128.26,672.35,1140.86z"/>
	<path class="st2" d="M1326.31,1140.58c-46.35-11.68-57.99-52.51-78.6-85.4c1.48-1.45,2.97-2.9,4.45-4.36
		c16.17,19.56,32.34,39.12,48.51,58.68c1.82-1.36,3.63-2.73,5.45-4.09c-4.66-29.77-27.53-48.76-47.16-70.83
		C1286.73,1033.73,1327.98,1099.47,1326.31,1140.58z"/>
	<path class="st2" d="M1212.58,1038.96c2.26,13.11,3.75,26.42,6.99,39.28c3.27,12.97,8.27,25.51,12.51,38.24
		c2.66-0.61,5.32-1.21,7.97-1.82c-3.67-20.23-7.33-40.46-10.78-59.46c23.25,20.04,35.2,71.06,21.19,98.34
		c-46.91-26.15-37.02-72.82-43.95-113.13C1208.54,1039.93,1210.56,1039.44,1212.58,1038.96z"/>
	<path class="st2" d="M748.56,1152.6c-16.4-21.39,0.93-76.87,23.58-101.68c-4.37,20.77-8.76,41.62-13.15,62.46
		c2.27,0.54,4.53,1.08,6.8,1.62c16.52-21.88,13.8-50.57,23.36-79.96C794.05,1088.96,782.68,1143.49,748.56,1152.6z"/>
	<path class="st2" d="M999.84,1261.73c18.18,20.56,36.76,41.56,59.51,67.29c-40.77-23.68-77.81-25.02-115.14-4.46
		C962.95,1303.4,981.68,1282.25,999.84,1261.73z"/>
	<path class="st2" d="M980.27,1168.7c5.74,13.48,11.47,26.97,19.39,45.56c8.06-18.76,13.98-32.53,20.2-47
		c11.44,13.05,5.52,25.51-0.36,37.75c-8.08,16.84-13.31,33.38,0.85,50.99c-6.57-4.52-13.14-9.04-20.38-14.03
		c-6.25,4.31-13.27,9.14-20.29,13.98c14.14-17.58,7.75-33.78,1.01-50.94c-4.27-10.86-5.26-23-7.72-34.57
		C975.4,1169.87,977.83,1169.29,980.27,1168.7z"/>
	<path class="st2" d="M1116.82,1065.84c-8.66-19.44-18.76-38.42-25.17-58.57c-2.17-6.81,4.03-17.17,8.54-24.63
		c1.22-2.02,10.92-0.72,15.37,1.62c3.08,1.62,3.51,7.84,5.7,11.67c3.62,6.34,7.7,12.41,13.49,21.6c-3.65,12.83-8.66,30.41-13.66,48
		C1119.67,1065.63,1118.24,1065.73,1116.82,1065.84z"/>
	<path class="st2" d="M878.55,1066.31c-2.42-9.07-4.68-18.19-7.32-27.2c-2.5-8.52-5.41-16.91-6.94-21.64
		c5.24-8.4,8.6-15.27,13.35-21.01c5.16-6.24,11.59-11.43,17.47-17.08c4.42,6.98,13.83,15.3,12.38,20.72
		c-6.07,22.72-15.39,44.56-23.53,66.73C882.16,1066.66,880.36,1066.49,878.55,1066.31z"/>
	<path class="st2" d="M656.89,794.81c25.54,14.41,51.08,28.81,78.14,44.07c-32.47,24.82-68.23,5.79-81.8-38.98
		C654.45,798.21,655.67,796.51,656.89,794.81z"/>
	<path class="st2" d="M1262.57,840.07c28.96-16.29,54.99-30.93,84.41-47.47C1340.66,831.76,1304.65,866.16,1262.57,840.07z"/>
	<path class="st2" d="M926.88,1391.4c-20.23-28.2-40.26-56.54-60.9-84.44c-3.5-4.73-9.65-7.5-17.62-13.46c0-3.99,0-12.65,0-23.39
		c9.16,3.38,16.82,6.2,20.8,7.67c2.94,9.7,3.51,17.56,7.34,23.19c16.53,24.27,34.21,47.75,50.98,71.85
		c3.23,4.65,4.26,10.82,6.3,16.29C931.47,1389.87,929.18,1390.64,926.88,1391.4z"/>
	<path class="st2" d="M1263.03,932.46c42.24-3.67,62.35,5.03,71.86,31.11C1309.6,979.23,1271.78,962.86,1263.03,932.46z"/>
	<path class="st2" d="M737.88,932.2c-13.44,31.71-44.89,45.26-73.41,32.78C672.73,938.37,691.96,929.61,737.88,932.2z"/>
	<path class="st2" d="M1159.12,999.06c14.61,36.62-3.48,81.48-36.72,89.16C1135.58,1058.34,1134.7,1024.46,1159.12,999.06z"/>
	<path class="st2" d="M838.56,997.1c26.36,26.71,25.2,60.78,38.28,90.49C844.52,1081.78,831.83,1051.74,838.56,997.1z"/>
	<path class="st2" d="M869.64,873.59c25.91,26.62,40.65,21.89,71.39-18.29c-1.33,21.22-19.18,50.22-36.96,60.03
		c-13.79,7.61-30.92-0.52-34.22-17.02C868.52,891.65,869.64,884.49,869.64,873.59z"/>
	<path class="st2" d="M720.1,918.84c-25.79,15.15-48.68,13.98-72.23-3.68C666.35,887.23,704.95,889.19,720.1,918.84z"/>
	<path class="st2" d="M1352.87,914.93c-24.27,18.86-48.27,16.86-73.2,5.36C1292.28,890.2,1328.55,887.12,1352.87,914.93z"/>
	<path class="st2" d="M1259.28,1208.24c-8.79-0.47-14.14-7.57-7.25-16.12c10.6-13.15,23.14-25.38,36.88-35.15
		c9.07-6.45,18.59,1.05,17.6,11.43C1305.16,1182.61,1276.34,1208.39,1259.28,1208.24z"/>
	<path class="st2" d="M748.91,1202.55c-4.46,1.39-13.15,6.76-16.05,4.55c-13.98-10.67-27.69-22.32-38.83-35.81
		c-5.62-6.8-0.47-15.18,10.03-15.84C718.13,1154.55,749.33,1183.94,748.91,1202.55z"/>
	<path class="st2" d="M1060.03,858.51c37.23,39.89,43.76,41.65,68.05,17.55c6.81,15.56,3.42,28.38-9.32,38.19
		c-12.99,10-24.68,3.44-32.81-6.88c-11.45-14.53-20.85-30.69-31.13-46.15C1056.56,860.32,1058.3,859.41,1060.03,858.51z"/>
	<path class="st2" d="M1279.97,859.11c18.64,0,37.54,0,57.74,0c-10.88,27.14-41.57,37.21-71.29,25.77
		C1270.8,876.56,1275.14,868.3,1279.97,859.11z"/>
	<path class="st2" d="M969.32,1205.54c13.65,20.59-13.56,67.43-54.57,69.62c10.38-8.81,21.76-16.71,30.85-26.7
		c8.61-9.47,14.82-21.13,22.08-31.82c-1.84-1.46-3.67-2.92-5.51-4.38c-14.73,13.85-29.46,27.71-44.19,41.56
		c-0.68-0.77-1.37-1.54-2.05-2.3C934.15,1235.82,952.37,1220.13,969.32,1205.54z"/>
	<path class="st2" d="M662.52,859.68c18.7,0,36.78-2.23,53.78,1.07c7,1.36,11.69,14.62,17.54,22.61
		C706,896.97,672.4,886.47,662.52,859.68z"/>
	<path class="st2" d="M1034.12,1198.06c18.58,17.56,36.06,34.09,56.05,52.99c-28.93-1.95-34.66-29.49-54.98-40.5
		c-1.45,36.3,36.55,42.13,47.88,67.67C1044.88,1274.36,1017.42,1228.26,1034.12,1198.06z"/>
	<path class="st2" d="M999.24,1185.67c-13.11-25.81-22.42-50.9-0.87-76.54C1021.32,1126.06,1017.33,1157.31,999.24,1185.67z"/>
	<path class="st2" d="M1190.52,1007.06c12.28,24.68,10.19,42.78-10.69,65.25c-4-14.98-8.32-26.8-10.1-38.99
		C1167.66,1019.08,1172.79,1008.26,1190.52,1007.06z"/>
	<path class="st2" d="M816.35,1069.35c-18.53-21.88-20.1-39.18-6.26-61.6c5,1.29,10.12,2.62,15.92,4.12
		C832.55,1031.96,833.02,1051.22,816.35,1069.35z"/>
	<path class="st2" d="M1057.66,1021.99c-19.81-24.92-19.39-33.06,2.99-58.01C1083.54,986.34,1082.89,998.93,1057.66,1021.99z"/>
	<path class="st2" d="M1125.31,728.86c16.62-12.78,27.67-22.89,40.34-30.18c4.61-2.65,16.58-0.85,19.01,2.9
		c3.8,5.88,3.42,15.31,2.35,22.89c-0.25,1.8-10.18,2.69-15.73,3.2c-8.21,0.76-16.48,0.91-24.72,1.15
		C1140.78,729,1135.01,728.86,1125.31,728.86z"/>
	<path class="st2" d="M874.13,728.94c-10.23,0-15.65,0.14-21.07-0.03c-8.19-0.27-16.41-0.5-24.57-1.25
		c-5.55-0.51-15.33-0.99-15.74-3.01c-1.51-7.36-2.19-16.77,1.39-22.62c2.4-3.91,14.4-6.36,18.83-3.8
		C846,705.74,857.38,716.08,874.13,728.94z"/>
	<path class="st2" d="M938,963.95c22.41,21.31,23.3,32.69,4.55,58.05C916.94,999.85,916.08,988.89,938,963.95z"/>
	<path class="st2" d="M1040.41,967.55c-21.29-29.61-20.66-41.56,2.99-56.8C1064.17,934.98,1063.59,946.12,1040.41,967.55z"/>
	<path class="st2" d="M1200.93,998.78c26.3,3.48,41.25,19.46,50.86,43.61C1220.78,1043.69,1197.36,1022.94,1200.93,998.78z"/>
	<path class="st2" d="M1183.74,1153.97c-4.3-25.77-8.61-51.54-12.91-77.3c1.71-0.35,3.43-0.7,5.14-1.04
		c2.44,14.78,4.87,29.55,7.31,44.33c2.48-0.17,4.97-0.34,7.45-0.51c1.14-16.97,2.29-33.94,3.43-50.9c1.9,0.23,3.8,0.47,5.69,0.7
		c-0.45,28.29,5.14,57.18-9.24,84.1C1188.32,1153.55,1186.03,1153.76,1183.74,1153.97z"/>
	<path class="st2" d="M748.19,1043.43c8.75-26.07,24.56-40.23,49.68-44.55C800.33,1024.24,783.14,1040.49,748.19,1043.43z"/>
	<path class="st2" d="M1028.88,1131.48c-22.8-24.19-24.48-42.02-6.53-61.06C1044.17,1091.66,1045.39,1101.79,1028.88,1131.48z"/>
	<path class="st2" d="M959.49,966.66c-22.75-18.84-23.63-28.75-4.93-55.31C978.47,922.84,979.89,938.76,959.49,966.66z"/>
	<path class="st2" d="M976.64,1070.14c18.09,19.94,16.42,37.45-4.68,60.05C954.13,1108.15,954.95,1095.54,976.64,1070.14z"/>
	<path class="st2" d="M1238.73,969.24c24.57-6.95,45.49-4.13,62.91,14.03C1285.56,1001.55,1257.31,995.31,1238.73,969.24z"/>
	<path class="st2" d="M761.13,969.48c-18.93,25.58-45.91,31.64-63.82,14.12C715.21,965.44,736.18,961.46,761.13,969.48z"/>
	<path class="st2" d="M1016.38,1024.91c-15.86-28.6-14.57-39.38,6.52-60.41C1039.19,987.97,1037.71,1004.31,1016.38,1024.91z"/>
	<path class="st2" d="M816.16,1152.79c-17.04-17.16-19.85-41.97-11.51-83.48c1.3,16.88,2.59,33.76,3.89,50.65
		c2.52,0.27,5.03,0.55,7.55,0.82c2.83-15.73,5.66-31.46,8.49-47.19c1.57,0.3,3.14,0.61,4.7,0.91
		C824.91,1100.59,820.54,1126.69,816.16,1152.79z"/>
	<path class="st2" d="M976.34,964.14c21.63,22.85,22.64,31.55,7.73,59.32C963.19,1010.1,960.42,991.16,976.34,964.14z"/>
	<path class="st2" d="M1038.13,1018.19c21.76,19.62,21.96,33.41,1.7,54.41C1020.67,1054.42,1020.14,1043.08,1038.13,1018.19z"/>
	<path class="st2" d="M960.47,1017.69c17.55,21.82,17.67,32.59,1.37,54.45C939.84,1056.95,939.22,1041.43,960.47,1017.69z"/>
	<path class="st2" d="M1026.1,788.41c5.85,21.56,20.83,40.58,8.79,64.73C1008.61,829.22,1007.09,817.79,1026.1,788.41z"/>
	<path class="st2" d="M981.28,899.24c4.3-13.19,5.84-21.73,20.61-20.51c14.31,1.18,14.94,11.76,13.06,19.55
		c-2.07,8.62-9.77,15.88-15.02,23.73C993.71,914.42,987.49,906.83,981.28,899.24z"/>
	<path class="st2" d="M965.52,853.03c-13.95-24.24,3.17-42.23,6.55-63.56C992.9,814.08,991.76,825.21,965.52,853.03z"/>
	<path class="st2" d="M1076.4,913.2c19.41,15.72,20.25,26.44,4.3,55.05C1063.77,952.79,1062.08,931.17,1076.4,913.2z"/>
	<path class="st2" d="M724.68,1021.97c-0.3-25.43,20.41-27.3,35.03-36.29C769.77,1008.99,754.34,1024.97,724.68,1021.97z"/>
	<path class="st2" d="M923.43,913.1c14.57,18.53,13.5,36.45-3.27,54.78C903.11,943.21,903.98,928.63,923.43,913.1z"/>
	<path class="st2" d="M1025.85,1147.71c18.14,12.77,35.19,24.77,52.92,37.26C1054.7,1202.83,1036.38,1188.86,1025.85,1147.71z"/>
	<path class="st2" d="M1027.24,1342.17c6.31,17.04,25.55,27.19,22.25,52.76c-9.28-11.77-15.71-19.93-23-29.17
		c-5.34,8.64-9.64,15.59-14.06,22.75C1004.25,1376.7,1006.74,1368.83,1027.24,1342.17z"/>
	<path class="st2" d="M1274.69,1022.27c-16.03,4.84-28.2-2.44-36.64-14.53c-3.23-4.63-0.53-13.39-0.53-20.97
		C1267.04,995.64,1274.97,1003.51,1274.69,1022.27z"/>
	<path class="st2" d="M972.37,1149.5c-1.12,18.39-10.09,33.06-25.75,41.84c-5.22,2.93-14.8-1.92-22.39-3.21
		c4.07-5.02,7.35-11.1,12.38-14.85C947.94,1164.83,960.14,1157.52,972.37,1149.5z"/>
	<path class="st2" d="M999.85,1025.29c17.96,21.31,18.09,30.3,0.73,50.66C980.6,1057.52,980.47,1048.93,999.85,1025.29z"/>
	<path class="st2" d="M999.92,973.44c-6.59-12.36-25.94-21.31-10.62-36.79c3.69-3.73,18.32-3.34,21.76,0.56
		C1025.14,953.19,1005.58,961.57,999.92,973.44z"/>
	<path class="st2" d="M953.15,1410.11c6.12,7.75,11.88,15.03,19.39,24.54c5.5-8.04,10.24-14.98,15.17-22.2
		c7.21,11.22,6.9,12.19-12.5,41.15C956.92,1440.7,947.25,1422.67,953.15,1410.11z"/>
	<path class="st2" d="M979.45,626.33c-0.94,1.53-2.42,6.25-4.28,6.41c-3.3,0.27-8.78-1.32-9.91-3.73
		c-4.76-10.19-9.06-20.77-11.76-31.64c-0.88-3.53,3.61-8.39,5.65-12.64c4.38,2.8,11.2,4.69,12.65,8.58
		C975.5,603.22,976.8,614.03,979.45,626.33z"/>
	<path class="st2" d="M999.78,812.25c-4.94-8.15-10.97-14.32-12.25-21.35c-1.15-6.27,1.65-14.35,5.33-19.89
		c1.57-2.36,12.81-2.26,14.42,0.17c3.57,5.39,6.06,13.41,4.84,19.53C1010.71,797.76,1004.82,803.91,999.78,812.25z"/>
	<path class="st2" d="M1024.93,1263.42c22.37,21.33,44.75,42.66,66.52,63.41C1079.45,1332.08,1043.68,1301.85,1024.93,1263.42z"/>
	<path class="st2" d="M924.7,1068.59c-15.81-18.72-16.55-28.36-3.95-51.42C940.23,1034.2,941.16,1046.28,924.7,1068.59z"/>
	<path class="st2" d="M1020.24,622.94c2.79-11.51,4.16-21.68,8-30.81c1.53-3.64,8.53-4.97,13.04-7.36c1.6,4.19,5.25,8.83,4.42,12.47
		c-2.21,9.75-5.78,19.33-10,28.43c-1.54,3.33-6.42,5.13-9.78,7.62C1023.89,629.59,1021.86,625.89,1020.24,622.94z"/>
	<path class="st2" d="M856.76,1145.68c-6.48-21.3-12.96-42.61-19.44-63.91c1.84-0.59,3.69-1.18,5.53-1.77
		c3.63,13.09,7.25,26.18,10.88,39.27c1.54-0.13,3.08-0.26,4.62-0.39c0.47-7.8,0.94-15.61,1.44-23.82
		c10.12,8.49,11.22,31.58,2.99,49.29C860.78,1144.8,858.77,1145.24,856.76,1145.68z"/>
	<path class="st2" d="M1206.46,698.38c-15.79-27.2-4.73-50.03,5.12-74.21c2.46,1.37,6.96,3.02,6.82,3.94
		C1214.85,650.88,1210.79,673.57,1206.46,698.38z"/>
	<path class="st2" d="M1077.67,1017.67c14.37,21.66,13.86,30.86-1.95,49.78C1059.59,1049.88,1059.84,1037.14,1077.67,1017.67z"/>
	<path class="st2" d="M789.27,626.09c8.08,23.39,21.01,46.5,3.09,72.71c-1.03-5.65-1.85-10.17-2.68-14.69
		c-2.66-14.47-5.67-28.88-7.79-43.43c-0.76-5.21,0.64-10.74,1.06-16.13C785.06,625.06,787.17,625.58,789.27,626.09z"/>
	<path class="st2" d="M907.21,1327.94c22.45-21.5,44.9-43,67.34-64.5C960.33,1293.87,938.49,1316.14,907.21,1327.94z"/>
	<path class="st2" d="M788.97,1354.66c32.41-5.36,61.12-10.11,92.87-15.36C863.94,1355.01,813.84,1363.38,788.97,1354.66z"/>
	<path class="st2" d="M1205.22,1362.3c-28.65-5.02-57.29-10.03-85.94-15.05c0.43-2.52,0.86-5.03,1.29-7.55
		c28.76,4.8,57.51,9.6,86.27,14.41C1206.3,1356.83,1205.76,1359.57,1205.22,1362.3z"/>
	<path class="st2" d="M1133.43,1143.87c0-15.84,0-31.68,0-47.52c1.46-0.11,2.92-0.21,4.38-0.32c0.86,7.56,1.72,15.12,2.58,22.67
		c1.6,0.39,3.19,0.79,4.79,1.18c4.38-14.47,8.77-28.94,13.16-43.41c1.52,0.5,3.03,1,4.55,1.51c-6.77,22.68-13.54,45.35-20.3,68.03
		C1139.53,1145.3,1136.48,1144.58,1133.43,1143.87z"/>
	<path class="st2" d="M831.59,671.57c-16.99-14.4-14.28-26.8,11.34-58.01C853.28,636.83,825.93,649.99,831.59,671.57z"/>
	<path class="st2" d="M1064.23,1114.6c-13.22-15.14-19.43-29.31-5.89-45.75C1075.78,1082.36,1076.94,1090.03,1064.23,1114.6z"/>
	<path class="st2" d="M935.49,1115.15c-12.64-23.15-11.84-30.59,4.35-45.88C952.14,1084.67,951.47,1093.34,935.49,1115.15z"/>
	<path class="st2" d="M1158.45,1198.03c-17.09,5.9-37.41-2.07-52.12-24.18c21.07,7.16,37.59,12.78,54.11,18.39
		C1159.77,1194.17,1159.11,1196.1,1158.45,1198.03z"/>
	<path class="st2" d="M948.98,784.66c12.85,22.13,11.74,29.81-6.51,48.42C935.06,815.49,937.15,800.06,948.98,784.66z"/>
	<path class="st2" d="M1051.08,1115.42c20.34,21.77,20.58,25.89,3.24,39.83C1036.58,1143.91,1042.88,1130.36,1051.08,1115.42z"/>
	<path class="st2" d="M954.09,856.05c7.25,22.79-5.71,39.5-15.74,57.1C926.56,889.56,953.93,876.22,954.09,856.05z"/>
	<path class="st2" d="M1158.28,608.91c7.18,22.62,29.64,35.68,14.4,59.36C1170.4,649.52,1147.74,636.52,1158.28,608.91z"/>
	<path class="st2" d="M948.15,1113.9c3.6,8.37,8.05,13.88,7.67,19.03c-0.51,6.87-4.45,13.65-7.8,19.99
		c-0.47,0.89-8.41-0.2-8.83-1.59c-2.04-6.73-4.38-14.17-3.27-20.8C936.76,1125.4,942.57,1121.11,948.15,1113.9z"/>
	<path class="st2" d="M1026.2,911.15c-2.95-16.26-5.89-32.48-9.12-50.3C1042.35,876.57,1044.52,894.71,1026.2,911.15z"/>
	<path class="st2" d="M839.77,1192.3c16.42-5.71,32.84-11.41,53.02-18.43c-13.95,21.73-33.56,30.01-51.05,24.63
		C841.09,1196.43,840.43,1194.36,839.77,1192.3z"/>
	<path class="st2" d="M973.84,911.59c-19.03-9.78-19.25-28.35,7.08-52.09C978.23,879.24,976.01,895.56,973.84,911.59z"/>
	<path class="st2" d="M1062.57,1436.59c1.98-8.64,3.72-16.2,5.49-23.9c7.02,2.66,13.05,4.95,19.97,7.57c0,7.27,0,15.88,0,26.04
		C1078.33,1442.6,1070.19,1439.5,1062.57,1436.59z"/>
	<path class="st2" d="M1060.8,831.58c-21.22-16.7-22.56-26.7-5.24-44.49C1057.31,801.92,1059.06,816.75,1060.8,831.58z"/>
	<path class="st2" d="M1057.05,913.92c-5.73-18.2-11.46-36.41-17.18-54.61c2.64-0.8,5.27-1.6,7.91-2.4
		c-0.78,20.13,23.61,32.85,16.41,54.86C1061.81,912.49,1059.43,913.21,1057.05,913.92z"/>
	<path class="st2" d="M999.98,831.58c14.26,12.28,15.74,23.83,0.93,35.49C984.36,854.17,984.09,848.56,999.98,831.58z"/>
	<path class="st2" d="M885.74,742.96c-11,7.05-21.33,13.67-32.55,20.87c-5.58-11.82,0.55-20.17,10.87-26.52
		C872.79,731.93,881.03,731.45,885.74,742.96z"/>
	<path class="st2" d="M894.39,868.24c14.98-12.02,26.57-21.31,38.01-30.49c0.66,12.41-2.46,25.22-16.03,31.6
		C911.1,871.83,903.27,868.88,894.39,868.24z"/>
	<path class="st2" d="M1106.5,868.22c-9.67,0.69-19.31,4.24-22.85,1.04c-8.04-7.27-13.07-17.85-19.32-27.09
		c1.33-0.8,2.66-1.59,4-2.39C1079.8,848.34,1091.28,856.89,1106.5,868.22z"/>
	<path class="st2" d="M1145.82,763.85c-10.79-7.14-21.01-13.91-31.47-20.83c3.43-11.34,11.42-11.43,20.51-5.95
		C1145.41,743.42,1152.27,751.61,1145.82,763.85z"/>
	<path class="st2" d="M908.5,1237.36c-3.38-0.21-10.76,1.37-15.12-1.55c-3.62-2.43-6.42-11.19-4.83-15.32
		c4.87-12.61,11.71-24.72,22.54-25.13c-2.79,4.15-10.25,10.94-11.73,18.84C898.21,1220.36,904.47,1227.92,908.5,1237.36z"/>
	<path class="st2" d="M1103.74,959.96c-2.42-9.03-4.85-18.07-7.73-28.8c9.3-1.27,16.01-2.18,27.08-3.69
		c-4.94,12.42-8.87,22.32-12.81,32.21C1108.1,959.78,1105.92,959.87,1103.74,959.96z"/>
	<path class="st2" d="M940.99,673.89c12.42-6.49,24.84-12.97,37.27-19.46c-3.99,21.77-18.46,25.01-34.07,26.28
		C943.12,678.45,942.06,676.17,940.99,673.89z"/>
	<path class="st2" d="M1223.78,1357.2c5.91,6.33,11.07,11.85,16.22,17.37c-0.93,1.53-1.86,3.05-2.79,4.58
		c-6.17-3.04-14.64-4.58-17.85-9.53c-3.09-4.76-3.42-15.35-0.11-19.22c4.44-5.18,13.56-6.35,20.67-9.25
		c0.76,1.69,1.53,3.39,2.29,5.08C1236.51,1349.63,1230.8,1353.02,1223.78,1357.2z"/>
	<path class="st2" d="M772.96,1341.1c3.23,8.72,9.88,18.02,8.54,25.98c-0.94,5.6-12.75,9.37-19.7,13.95
		c-1.2-1.48-2.39-2.96-3.59-4.43c5.61-6.24,11.22-12.48,17.63-19.61c-5.81-3.13-11.76-6.34-21.38-11.52
		c8.75-1.74,13.94-2.78,19.08-3.85C773.48,1341.57,772.96,1341.1,772.96,1341.1z"/>
	<path class="st2" d="M1000.05,614.5c-3.99-11.07-7.56-18.59-9.18-26.51c-0.78-3.8,1.21-9.05,3.72-12.28
		c1.34-1.73,8.14-1.98,9.47-0.39c2.67,3.18,5.01,8.38,4.38,12.23C1007.12,595.52,1003.75,603.14,1000.05,614.5z"/>
	<path class="st2" d="M1087.94,1238.75c6.56-9.6,14.03-16.16,12.79-19.58c-3.07-8.46-10.11-15.48-15.28-25.66
		c7.73,6.73,17.18,12.34,22.54,20.61c3.23,4.98,2.16,15.21-0.97,20.89C1105.16,1238.38,1095.55,1237.49,1087.94,1238.75z"/>
	<path class="st2" d="M738.94,1359.28c-21.44,6.57-21.44,6.57-30.29-8.68c13.14-1.85,24.69-3.47,40.4-5.68
		c-5.19,7.3-7.91,11.12-10.62,14.94L738.94,1359.28z"/>
	<path class="st2" d="M902.2,930.3c-2.2,11.1-4.03,20.36-5.87,29.62c-2.01,0.2-4.02,0.41-6.03,0.61
		c-4.23-10.08-8.47-20.16-13.68-32.56C886.58,928.87,892.87,929.44,902.2,930.3z"/>
	<path class="st2" d="M1255,1355.98c0.94-3.05,1.63-8.6,2.86-8.72c7.03-0.7,14.51-1.28,21.18,0.52c3.41,0.92,5.46,6.9,8.12,10.6
		c-4.38,1.77-9.09,5.54-13.05,4.87c-6.76-1.13-13.05-5.05-19.54-7.8L1255,1355.98z"/>
	<path class="st2" d="M1071.24,1153.84c2.53-6.45,3.81-9.72,6.11-15.56c11.65,8.78,22.55,16.99,33.44,25.19
		c-0.73,1.39-1.46,2.78-2.18,4.17C1096.47,1163.15,1084.34,1158.67,1071.24,1153.84z"/>
	<path class="st2" d="M920.84,1138.61c5.95,27.67-17.01,20.82-28.05,28.83c-0.97-1.17-1.94-2.34-2.91-3.5
		C900.2,1155.5,910.52,1147.05,920.84,1138.61z"/>
	<path class="st2" d="M1076.44,806.36c-4.74-25.95,0.85-35.95,21.78-47.15C1092.32,771.96,1084.83,788.18,1076.44,806.36z"/>
	<path class="st2" d="M738.42,1359.85c7.4-1.41,14.79-2.81,26.77-5.09c-9.94,14.54-14.25,28.44-33.7,20.33
		c2.72-5.78,5.07-10.77,7.44-15.79C738.94,1359.28,738.42,1359.85,738.42,1359.85z"/>
	<path class="st2" d="M1023.02,646.55c-16.07,0-32.14,0-48.22,0c0.02-1.61,0.03-3.23,0.05-4.84c16.28,0,32.57,0,48.85,0
		C1023.48,643.32,1023.25,644.93,1023.02,646.55z"/>
	<path class="st2" d="M901.54,759.13c21.96,13.25,26.95,22.06,21.31,45.21C914.85,787.37,907.74,772.28,901.54,759.13z"/>
	<path class="st2" d="M1254.57,1355.45c4.54,5.67,9.08,11.34,13.64,17.05c-15.3,9.51-20.43,6.95-29.6-15.41
		c5.76-0.37,11.1-0.71,16.41-1.08C1255,1355.98,1254.57,1355.45,1254.57,1355.45z"/>
	<path class="st2" d="M1057.01,733.55c-7.76,15.3-14.29,28.15-20.9,41.18C1029.62,758.29,1035.92,744.5,1057.01,733.55z"/>
	<path class="st2" d="M943.68,735.33c17.82,8.3,25.22,21.47,21.16,42.41C957.12,762.27,950.4,748.8,943.68,735.33z"/>
	<path class="st2" d="M1006.77,755.83c8.06-7.8,16.12-15.6,24.18-23.39c1.94,1.95,3.88,3.89,5.82,5.84
		c-7.78,8.08-15.56,16.16-23.34,24.24C1011.21,760.29,1008.99,758.06,1006.77,755.83z"/>
	<path class="st2" d="M829.7,1211.55c11.85-6.63,34.92,0.6,51.38,15.82C864.3,1222.2,847.65,1217.08,829.7,1211.55z"/>
	<path class="st2" d="M1119.46,1226.65c15.14-14.41,38.7-21.6,50.82-15.18C1153.23,1216.55,1136.3,1221.61,1119.46,1226.65z"/>
	<path class="st2" d="M1096.36,1188.6c-5.13-4.22-10.25-8.44-15.37-12.67c-5.67-4.68-11.34-9.37-17.01-14.06
		c0.87-1.24,1.74-2.47,2.62-3.71c11.42,7.81,22.84,15.61,34.26,23.42C1099.35,1183.92,1097.86,1186.26,1096.36,1188.6z"/>
	<path class="st2" d="M1100.43,670.58c-5.15-7.98-10.3-15.97-16-24.81C1101.78,643.11,1105.46,648.06,1100.43,670.58z"/>
	<path class="st2" d="M915.6,644.82c-5.63,9.04-10.68,17.13-16.57,26.58C891.89,651.88,897.06,643.54,915.6,644.82z"/>
	<path class="st2" d="M1123.3,667.95c-0.19-11.92-0.28-23.76,22.34-26.35c-7.31,12.19-12.3,20.5-17.28,28.81
		C1126.67,669.59,1124.99,668.77,1123.3,667.95z"/>
	<path class="st2" d="M983.41,763.9c-7.18-8.18-14.37-16.37-21.55-24.55c2.12-2.21,4.23-4.42,6.35-6.63
		c7.97,7.45,15.94,14.9,23.92,22.35C989.22,758.01,986.31,760.95,983.41,763.9z"/>
	<path class="st2" d="M853.85,642.79c24.85,0.53,18.96,16.13,24.65,24.18c-1.99,1.31-3.99,2.63-5.98,3.94
		C867.12,662.8,861.73,654.67,853.85,642.79z"/>
	<path class="st2" d="M935.28,1162.3c-10.42,8.72-20.84,17.44-31.25,26.16c-1.62-2.14-3.24-4.29-4.87-6.43
		c10.98-8.06,21.96-16.12,32.93-24.18C933.15,1159.34,934.21,1160.82,935.28,1162.3z"/>
	<path class="st2" d="M930.99,734c7.18,12.95,12.99,23.41,20.39,36.76C931.69,756.77,925.12,745.74,930.99,734z"/>
	<path class="st2" d="M798.05,618.3c9.59-5.76,19.17-11.53,28.75-17.29c1.17,1.86,2.33,3.73,3.5,5.59
		c-9.31,6.04-18.62,12.09-27.93,18.13C800.93,622.59,799.49,620.45,798.05,618.3z"/>
	<path class="st2" d="M1196.65,624.57c-9.07-5.7-18.14-11.39-27.21-17.09c0.92-1.74,1.84-3.47,2.76-5.21
		c9.59,4.91,19.18,9.82,28.78,14.72C1199.54,619.52,1198.09,622.05,1196.65,624.57z"/>
	<path class="st2" d="M1118.85,599.1c0,13.2,0,21.45,0,33.76c-7.41-8.21-11.21-12.42-14.62-16.2
		C1107.47,612.78,1111.14,608.37,1118.85,599.1z"/>
	<path class="st2" d="M897.61,735.98c9.75,8.01,19.49,16.02,29.24,24.04c-1.16,1.44-2.32,2.88-3.49,4.33
		c-9.99-7.97-19.97-15.93-29.96-23.9C894.81,738.96,896.21,737.47,897.61,735.98z"/>
	<path class="st2" d="M1049.79,767.09c6.36-10.56,12.73-21.12,20.35-33.78C1073.78,745.78,1073.78,745.78,1049.79,767.09z"/>
	<path class="st2" d="M1106.93,739.96c-9.48,7.57-18.96,15.13-28.44,22.7c-1.23-1.55-2.45-3.09-3.67-4.64
		c9.54-7.49,19.08-14.98,28.61-22.46C1104.6,737.02,1105.77,738.49,1106.93,739.96z"/>
	<path class="st2" d="M1021.62,581.46c-3.03,15.55-6.07,31.11-9.1,46.66c-1.44-0.31-2.88-0.62-4.32-0.93
		c3.31-15.5,6.62-30.99,9.93-46.49C1019.29,580.95,1020.46,581.2,1021.62,581.46z"/>
</g>
</svg>