<svg version="1.1" id="Слой_1" xmlns="http://www.w3.org/2000/svg" xmlns:xlink="http://www.w3.org/1999/xlink" x="0px" y="0px"
	 viewBox="0 0 2000 2000" style="enable-background:new 0 0 2000 2000;" xml:space="preserve">
<style type="text/css">
	.st0{opacity:0.3;fill:#E4FC00;}
	.st1{opacity:0.5;}
	.st2{fill:#0155A5;}
</style>
<g>
	<path d="M999.61,487.47c-237.74,0-431.14,184.48-431.14,411.25c0,213.33,356.47,610.4,397.11,654.97l34.03,37.31l34.03-37.31
		c40.64-44.57,397.11-441.64,397.11-654.97C1430.75,671.95,1237.34,487.47,999.61,487.47z M999.61,1457.42
		c-119.33-137.39-340.44-420.54-340.44-558.7c0-178.43,152.72-323.6,340.44-323.6s340.44,145.16,340.44,323.6
		C1340.05,1036.88,1118.93,1320.03,999.61,1457.42z"/>
	<path d="M999.61,692c-108.36,0-196.52,85.2-196.52,189.92s88.16,189.92,196.52,189.92s196.52-85.2,196.52-189.92
		S1107.97,692,999.61,692z M999.61,984.18c-58.34,0-105.82-45.88-105.82-102.26s47.48-102.26,105.82-102.26
		s105.82,45.88,105.82,102.26S1057.95,984.18,999.61,984.18z"/>
</g>
</svg>
