<svg version="1.1" id="Слой_1" xmlns="http://www.w3.org/2000/svg" xmlns:xlink="http://www.w3.org/1999/xlink" x="0px" y="0px"
	 viewBox="0 0 2000 2000" style="enable-background:new 0 0 2000 2000;" xml:space="preserve">
<style type="text/css">
	.st0{opacity:0.3;fill:#E4FC00;}
	.st1{opacity:0.5;}
	.st2{fill:#0155A5;}
</style>
<path d="M1708,848.55h-207.25l39.53-316.14H777.37l-27.08-0.23L617.85,848.55h-179.8l-142.83,458.9h216.65
	c4.32,65.93,38.13,119.81,91.31,140.55c15.66,6.11,31.81,9.01,48,9.01c69.44,0,139.49-53.59,172.69-138.75
	c1.37-3.51,2.45-7.2,3.66-10.81h258.61c4.32,65.93,38.13,119.81,91.31,140.55c15.66,6.11,31.81,9.01,48,9.01
	c69.44,0,139.49-53.59,172.69-138.75c1.37-3.51,2.45-7.2,3.66-10.81h190.63L1708,848.55z M1596.21,968.06h-54.09l12.55-40.3h51.69
	L1596.21,968.06z M1321.91,614.19l-43.74,237.03l-167.47-1.12l44.3-237.03L1321.91,614.19z M803.06,611.85l126.09,1.08
	l-58.65,237.15l-166.9-1.12L803.06,611.85z M545.52,927.76l-15.89,60.1h-52.01l18.71-60.1H545.52z M631.96,1374.21
	c-29.8-11.62-46.3-53.28-40.09-101.31c1.8-13.98,5.32-27.79,10.48-41.02c12.43-31.89,33.65-59.1,58.19-74.63
	c1.98-1.25,4.38-2.61,6.91-3.96c0.6-0.32,1.24-0.64,1.87-0.95c2.64-1.33,5.48-2.63,8.56-3.8c0.15-0.06,0.3-0.14,0.46-0.19
	c3.15-1.18,6.56-2.14,10.05-2.93c0.82-0.19,1.67-0.33,2.5-0.49c3.24-0.6,6.58-0.99,10-1.06c0.48-0.01,0.95-0.09,1.43-0.08
	c2.08,0.01,4.2,0.28,6.32,0.55c0.91,0.11,1.8,0.1,2.71,0.27c3.04,0.55,6.1,1.38,9.15,2.57c8.18,3.19,15.31,8.54,21.24,15.61
	c11.87,14.13,18.96,35.1,20.01,59.21c0.52,12.05-0.46,24.89-3.11,38.04l-0.02,0.11c-2.05,10.22-4.92,20.09-8.53,29.34
	C726.06,1351.04,672.01,1389.75,631.96,1374.21z M1206.23,1374.21c-29.8-11.62-46.3-53.28-40.09-101.31
	c1.8-13.98,5.32-27.79,10.48-41.02c12.43-31.89,33.65-59.1,58.19-74.63c1.97-1.25,4.37-2.61,6.9-3.95c0.61-0.32,1.25-0.64,1.89-0.97
	c2.62-1.31,5.43-2.61,8.47-3.77c0.19-0.07,0.36-0.16,0.55-0.23c3.14-1.17,6.54-2.13,10.02-2.92c0.83-0.19,1.68-0.34,2.53-0.5
	c3.23-0.6,6.57-0.98,9.97-1.05c0.49-0.01,0.95-0.09,1.44-0.09c2.09,0.01,4.23,0.28,6.36,0.55c0.89,0.11,1.77,0.1,2.66,0.27
	c3.04,0.55,6.1,1.38,9.15,2.57c8.18,3.19,15.31,8.54,21.24,15.61c11.87,14.13,18.96,35.1,20.01,59.21
	c0.52,12.05-0.46,24.89-3.11,38.04l-0.02,0.11c-2.05,10.22-4.92,20.09-8.53,29.34C1300.35,1351.04,1246.24,1389.75,1206.23,1374.21z
	 M1415.39,1228.24c0-0.36-0.06-0.7-0.06-1.06c-0.03-7.85-0.54-15.53-1.38-23.07c-0.17-1.58-0.38-3.14-0.59-4.71
	c-1.01-7.5-2.32-14.87-4.1-21.97c-0.2-0.77-0.45-1.5-0.66-2.27c-1.77-6.67-3.91-13.12-6.35-19.36c-0.44-1.13-0.83-2.28-1.3-3.4
	c-2.67-6.44-5.72-12.59-9.08-18.48c-0.7-1.23-1.43-2.41-2.16-3.62c-3.58-5.9-7.41-11.58-11.68-16.83c-0.26-0.31-0.55-0.58-0.8-0.9
	c-4.16-5.03-8.7-9.64-13.47-13.99c-0.91-0.83-1.79-1.69-2.73-2.5c-4.95-4.26-10.2-8.13-15.74-11.61c-1.1-0.69-2.23-1.32-3.36-1.98
	c-5.87-3.44-11.94-6.6-18.4-9.12c-41-15.97-88.8-9.82-131.08,16.94c-39.08,24.73-70.91,64.78-89.63,112.78
	c-3.21,8.24-5.99,16.63-8.32,25.14H841.12c0-0.36-0.06-0.7-0.06-1.06c-0.03-7.85-0.54-15.53-1.38-23.07
	c-0.17-1.58-0.38-3.14-0.59-4.71c-1.01-7.5-2.32-14.87-4.1-21.97c-0.2-0.77-0.45-1.5-0.66-2.27c-1.77-6.67-3.91-13.12-6.35-19.36
	c-0.44-1.13-0.83-2.28-1.3-3.4c-2.67-6.44-5.72-12.59-9.08-18.48c-0.7-1.23-1.43-2.41-2.16-3.62c-3.58-5.9-7.41-11.58-11.68-16.83
	c-0.26-0.31-0.55-0.58-0.8-0.9c-4.16-5.03-8.7-9.64-13.47-13.99c-0.91-0.83-1.79-1.69-2.73-2.5c-4.95-4.26-10.2-8.13-15.74-11.61
	c-1.1-0.69-2.23-1.32-3.36-1.98c-5.87-3.44-11.94-6.6-18.4-9.12c-40.98-15.97-88.8-9.82-131.08,16.94
	c-39.08,24.73-70.91,64.78-89.63,112.78c-3.21,8.24-5.99,16.63-8.32,25.14H402.82l62.49-200.77h94.85l26.34-99.71h58.19l287.69,1.95
	l78.7-318.1h63.6l-59.24,317.07l328.6,2.17l58.91-319.24h47.6l-39.53,316.14h102.16l-24.87,79.91h97.92l-55.53,220.57H1415.39z"/>
</svg>
