<svg version="1.1" id="Слой_1" xmlns="http://www.w3.org/2000/svg" xmlns:xlink="http://www.w3.org/1999/xlink" x="0px" y="0px"
	 viewBox="0 0 2000 2000" style="enable-background:new 0 0 2000 2000;" xml:space="preserve">
<style type="text/css">
	.st0{opacity:0.3;fill:#E4FC00;}
	.st1{opacity:0.5;}
	.st2{fill:#0155A5;}
</style>
<g>
	<path d="M1366.2,844.77l-116.39,426.78h-17.46c-0.02-0.2-0.07-0.4-0.09-0.6c-0.53-5.55-1.35-10.99-2.38-16.35
		c-0.24-1.25-0.51-2.48-0.78-3.72c-1.04-4.83-2.24-9.57-3.67-14.21c-0.19-0.61-0.33-1.25-0.53-1.85c-1.63-5.07-3.54-9.97-5.63-14.77
		c-0.51-1.17-1.05-2.32-1.59-3.47c-2.04-4.38-4.22-8.65-6.64-12.77c-0.25-0.43-0.47-0.89-0.73-1.32c-2.65-4.41-5.57-8.6-8.65-12.66
		c-0.78-1.03-1.58-2.04-2.39-3.05c-3.03-3.78-6.2-7.44-9.61-10.88c-0.23-0.23-0.44-0.49-0.67-0.73c-3.61-3.59-7.48-6.9-11.49-10.08
		c-1.01-0.8-2.04-1.58-3.07-2.35c-4.15-3.09-8.42-6.04-12.95-8.65c-37.25-21.51-83.66-24.05-127.39-6.95
		c-41.05,16.03-76.77,47.6-100.57,88.83c-3.26,5.63-6.24,11.38-8.95,17.22c-1.05,2.26-1.88,4.6-2.85,6.89
		c-1.53,3.61-3.13,7.2-4.46,10.88c-0.07,0.2-0.17,0.4-0.25,0.6h-196.8c-0.02-0.2-0.07-0.4-0.09-0.6
		c-0.53-5.55-1.35-10.99-2.38-16.35c-0.24-1.25-0.51-2.48-0.78-3.72c-1.03-4.83-2.24-9.57-3.67-14.21
		c-0.19-0.61-0.33-1.25-0.53-1.85c-1.63-5.07-3.54-9.97-5.63-14.77c-0.51-1.17-1.05-2.32-1.59-3.47c-2.04-4.38-4.22-8.65-6.64-12.77
		c-0.25-0.43-0.47-0.89-0.73-1.32c-2.65-4.41-5.57-8.6-8.65-12.66c-0.78-1.03-1.58-2.04-2.39-3.05c-3.03-3.78-6.2-7.44-9.61-10.88
		c-0.23-0.23-0.44-0.49-0.67-0.73c-3.61-3.59-7.48-6.9-11.49-10.08c-1.01-0.8-2.04-1.58-3.07-2.35c-4.15-3.09-8.42-6.04-12.95-8.65
		c-37.25-21.51-83.65-24.05-127.39-6.95c-41.05,16.03-76.77,47.6-100.57,88.83c-3.26,5.63-6.24,11.38-8.95,17.22
		c-1.05,2.26-1.88,4.6-2.85,6.89c-1.53,3.61-3.13,7.2-4.46,10.88c-0.07,0.2-0.17,0.4-0.25,0.6h-60.7l73.61-241.84h288.17
		l202.08-298.75h266.55l36-85.36H696.81L348.73,963.4l-119.75,393.51h164.61c4.63,50.42,29.98,93.92,70.82,117.48
		c20.91,12.07,44.71,18.17,69.3,18.16c19.21,0,38.91-3.71,58.1-11.21c41.05-16.03,76.77-47.6,100.57-88.83
		c6.62-11.44,12.08-23.34,16.45-35.59h196.91c4.63,50.42,29.98,93.92,70.82,117.48c20.91,12.07,44.71,18.17,69.3,18.16
		c19.21,0,38.91-3.71,58.1-11.21c41.05-16.03,76.77-47.6,100.57-88.83c6.62-11.44,12.08-23.34,16.45-35.59h94.04l139.68-512.14
		H1366.2z M729.9,730.96h75.08L660.64,944.35H496.2L729.9,730.96z M560.74,1401.84c-11.42,4.46-33.59,10.2-53.67-1.38
		c-22.58-13.03-33.3-44.05-27.33-79.06c2.56-14.93,7.77-29.3,15.55-42.73c13.96-24.2,35-43.16,57.72-52.04
		c1.51-0.59,3.24-1.2,5.1-1.8c0.57-0.18,1.22-0.34,1.81-0.51c1.36-0.4,2.76-0.79,4.25-1.15c0.82-0.19,1.7-0.35,2.56-0.52
		c1.4-0.28,2.82-0.54,4.3-0.75c0.99-0.14,2.01-0.23,3.04-0.33c1.45-0.14,2.92-0.23,4.42-0.28c1.26-0.04,2.54-0.04,3.83,0
		c0.9,0.03,1.81,0.08,2.72,0.15c1.49,0.12,2.99,0.33,4.5,0.58c0.9,0.15,1.8,0.27,2.7,0.47c1.64,0.35,3.28,0.86,4.92,1.39
		c0.78,0.25,1.56,0.44,2.33,0.73c2.41,0.92,4.82,2.01,7.2,3.38c5.64,3.26,10.55,7.64,14.64,12.93
		c10.21,13.22,15.33,32.1,14.16,53.21c-0.23,4.22-0.72,8.54-1.47,12.91l-0.01,0.06c-2.56,14.92-7.76,29.26-15.54,42.68
		C604.5,1373.99,583.46,1392.96,560.74,1401.84z M1146.14,1307.05l-0.01,0.06c-2.56,14.92-7.76,29.26-15.54,42.68
		c-13.96,24.2-35,43.16-57.72,52.04c-11.42,4.46-33.59,10.2-53.67-1.38c-22.58-13.03-33.3-44.05-27.33-79.06
		c2.56-14.93,7.77-29.3,15.55-42.73c13.96-24.2,35-43.16,57.72-52.04c1.51-0.59,3.24-1.2,5.1-1.8c0.57-0.18,1.22-0.34,1.81-0.51
		c1.36-0.4,2.76-0.79,4.25-1.15c0.82-0.19,1.7-0.35,2.56-0.52c1.4-0.28,2.82-0.54,4.3-0.75c0.99-0.14,2.01-0.23,3.04-0.33
		c1.45-0.14,2.92-0.23,4.42-0.28c1.26-0.04,2.54-0.04,3.83,0c0.9,0.03,1.81,0.08,2.72,0.15c1.49,0.12,2.99,0.33,4.5,0.58
		c0.9,0.15,1.8,0.27,2.7,0.47c1.64,0.35,3.28,0.86,4.92,1.39c0.78,0.25,1.56,0.44,2.33,0.73c2.41,0.92,4.82,2.01,7.2,3.38
		c5.64,3.26,10.55,7.64,14.64,12.93c10.21,13.22,15.33,32.1,14.16,53.21C1147.37,1298.36,1146.89,1302.67,1146.14,1307.05z"/>
	<g>
		<polygon points="1632.27,816.32 1266.76,816.32 1308.38,735.23 1673.89,735.23 		"/>
	</g>
	<g>
		<polygon points="1576.77,707.49 1211.27,707.49 1252.89,626.4 1618.39,626.4 		"/>
	</g>
	<g>
		<polygon points="1729.38,598.66 1363.88,598.66 1405.5,517.57 1771,517.57 		"/>
	</g>
</g>
</svg>
