<svg version="1.1" id="Слой_1" xmlns="http://www.w3.org/2000/svg" xmlns:xlink="http://www.w3.org/1999/xlink" x="0px" y="0px"
	 viewBox="0 0 2000 2000" style="enable-background:new 0 0 2000 2000;" xml:space="preserve">
<style type="text/css">
	.st0{opacity:0.3;fill:#E4FC00;}
	.st1{opacity:0.5;}
	.st2{fill:#0155A5;}
</style>
<g>
	<path class="st0" d="M1667.43,839.89l-294.41-351.24h-56.08h-136.46L980.46,680.42L780.45,488.65H643.99h-56.08L293.5,839.89
		l294.41,176.02v384.02h785.11v-384.02L1667.43,839.89z M1373.02,575.95l209.19,249.56l-209.19,125.07V575.95z M378.72,825.51
		l209.19-249.56v374.63L378.72,825.51z M1316.94,1343.85H643.99v-294.41V544.73h113.92L980.46,758.1l222.55-213.38h113.92v504.71
		V1343.85z"/>
	<path class="st1" d="M1705,1076.63l-235.2-280.6H1425h-109.01l-159.79,153.2l-159.79-153.2H887.4h-44.8l-235.2,280.6l235.2,140.62
		v306.78h627.2v-306.78L1705,1076.63z M1469.8,865.77l167.11,199.37l-167.11,99.91V865.77z M675.49,1065.14L842.6,865.77v299.28
		L675.49,1065.14z M1425,1479.23H887.4v-235.2v-403.2h91.01l177.79,170.46l177.79-170.46H1425v403.2V1479.23z"/>
</g>
</svg>
