<svg version="1.1" id="Слой_1" xmlns="http://www.w3.org/2000/svg" xmlns:xlink="http://www.w3.org/1999/xlink" x="0px" y="0px"
	 viewBox="0 0 2000 2000" style="enable-background:new 0 0 2000 2000;" xml:space="preserve">
<style type="text/css">
	.st0{opacity:0.3;fill:#E4FC00;}
	.st1{opacity:0.5;}
	.st2{fill:#0155A5;}
</style>
<g>
	<path d="M744.96,1190.06c-2.39,4.96-3.65,11.25-7.49,14.5c-4.08,3.46-10.65,5.37-16.02,5.15c-1.97-0.08-5.39-8.33-5.11-12.65
		c2.5-38.64,5.33-77.27,8.78-115.84c2.83-31.63,6.24-63.22,10.1-94.74c10.5-85.85,21.28-171.67,32.16-257.48
		c3.28-25.88,7.52-51.64,10.67-77.53c0.43-3.52-2.95-7.49-4.57-11.26c-2.5,3.17-7.17,6.39-7.1,9.51c0.21,9.53-4.52,12-12.7,12.58
		c-31.56,2.25-63.08,5.32-94.68,6.91c-11.69,0.59-17.95,5.81-20.48,16.08c-7.05,28.65-13.37,57.48-20.46,86.12
		c-9.67,39.11-19,78.33-29.9,117.09c-11.16,39.65-24.98,78.56-35.92,118.27c-13.36,48.49-25.45,97.34-37.06,146.28
		c-6.31,26.59-10.11,53.76-15.71,80.54c-4.26,20.36-9.01,40.66-14.71,60.65c-1.76,6.17-6.27,14.39-11.43,16.2
		c-12.93,4.53-15.76,13.76-16.6,25.06c-0.93,12.58-0.85,25.27-2.37,37.77c-1.77,14.57-4.64,29.02-7.33,43.47
		c-1.93,10.39-8.18,16.46-19.08,15.48c-8.71-0.78-14.96-11.29-14.2-21.9c2.28-32.05,4.31-64.11,6.69-96.15
		c6.17-82.88,10.65-165.95,19.24-248.58c8.45-81.26,20.58-162.15,32.13-243.05c7.06-49.49,18.02-98.17,38.44-144.23
		c3.76-8.48-1-11.57-8.65-10.64c-16.81,2.05-33.49,5.29-50.34,6.89c-15.5,1.47-31.19,0.8-46.7,2.24
		c-12.87,1.19-25.83,3.1-38.29,6.42c-17.49,4.66-23.44,0.87-23.65-17.54c-0.08-6.97,0.8-14.05-0.18-20.88
		c-1.92-13.43,4.69-19.88,16.43-23.77c72.33-23.96,145.55-41.94,222-49.24c64.74-6.18,128.55-4.5,192.67,2.6
		c8.58,0.95,17.03,3.38,25.41,5.62c23.43,6.25,46.78,12.78,70.18,19.15c10.5,2.86,13.07,10.77,12.33,20.19
		c-0.88,11.19-9.99,6.63-16.11,7.89c-17.52,3.6-35,7.37-54.12,11.42c12.49,30.09,13.37,60.7,34.25,87.97
		c3.51-9.08,6.03-15.51,8.47-21.98c1.67-4.43,2.07-10.06,5.11-13.08c4.69-4.67,11.14-7.56,16.84-11.2
		c3.79,6.25,10.94,12.61,10.72,18.71c-0.58,15.9-3.92,31.78-7,47.5c-5.42,27.69-10.54,55.49-17.46,82.82
		c-11.84,46.75-13.2,94.4-14.53,142.13c-0.1,3.47,0.07,6.95,0.37,10.41c0.1,1.19,0.97,2.32,2.54,5.83
		c7.78-7.86,15.17-14.66,21.8-22.13c44.32-49.91,75.91-107.14,100.58-169.05c27.45-68.9,57.73-136.68,86.89-204.9
		c3.55-8.3,8.38-15.58,19.27-14.13c10.98,1.46,13.53,9.54,14.42,18.75c1.35,14.12,2.59,28.26,3.97,43.42
		c4.18-0.88,6.97-0.6,8.01-1.81c21.1-24.5,52.24-27.6,80.16-37.08c13.81-4.69,29.07-4.97,43.2-8.92
		c7.53-2.11,14.86-6.88,20.88-12.07c14.11-12.16,26.62-14.64,45.78-7.06c22.04,8.73,47.24,10.25,71.29,12.96
		c21.57,2.43,43.44,2.16,65.16,3.3c3.38,0.18,7.96,0.36,9.86,2.47c17.16,18.97,41.67,15.05,63.03,20.66
		c10.48,2.76,21.37,4,32.1,5.74c7.09,1.15,15.95,2.31,13.59,11.54c-1.62,6.33-7.57,13.36-13.47,16.33
		c-7.45,3.75-17.63,2.01-25.16,5.67c-11.52,5.6-21.74,13.84-32.57,20.88c-31.07,20.22-66.26,25.4-102.14,26.59
		c-30.71,1.02-27.02,1.72-34.44,29.87c-8.51,32.29-13.67,65.44-21.23,98c-4.11,17.72-10.31,34.95-15.31,52.48
		c-12.83,45-24.45,90.38-38.54,134.99c-14.74,46.66-31.92,92.55-47.69,138.9c-2.62,7.71-3.87,15.96-5.04,24.07
		c-1.66,11.53-7.76,16.65-19.46,16.07c-11.27-0.55-13.68-7.73-13.44-16.85c0.9-34.36,1.61-68.73,3.26-103.05
		c0.49-10.28-0.99-18.33-8.62-25.94c-3.67-3.66-6.2-10.85-5.6-16.01c4.75-41.01,9.92-81.99,15.93-122.84
		c3.41-23.18,7.9-46.27,13.23-69.09c5.4-23.14,13.27-45.71,18.49-68.88c4.45-19.75,8.14-39.92,9.39-60.07
		c1-16.09-8.95-25.75-25.11-25.19c-26.01,0.89-51.98,3.73-77.89,6.53c-2.92,0.32-6.93,5.25-7.71,8.66
		c-13.49,59.21-27.84,118.27-39.31,177.89c-9.85,51.2-16.62,103-24.13,154.63c-4.75,32.7-8.5,65.55-12.39,98.37
		c-1.25,10.54-4.65,17.2-17.11,15.43c-7.75-1.1-9.99,4.31-11.25,11.23c-1.78,9.73-3.54,19.86-7.84,28.56
		c-2.24,4.53-9.99,8.8-15.12,8.66c-4.33-0.12-10.95-6.1-12.2-10.68c-2.72-9.95-6.02-18.33-14.35-25.25
		c-3.44-2.86-4.9-10.17-4.51-15.24c2.89-37.3,6.49-74.53,9.84-111.79c1.83-20.37,3.67-40.74,5.29-61.12
		c0.18-2.26-1.1-4.64-2.47-9.95c-10.43,13.52-19.72,24.69-28.07,36.51c-55.87,79.08-111.64,158.23-167.13,237.57
		c-5.28,7.55-10.55,12.86-20.17,10.1c-9.98-2.87-7.71-11.38-7.61-18.48c0.11-7.82,1.33-15.64,1.31-23.45
		c-0.01-4.76-1.44-9.51-2.24-14.26C746.95,1189.56,745.96,1189.81,744.96,1190.06z M716.87,616.75
		c-23.14-19.88-222-10.53-261.59,16.02C544.68,637.51,630.37,620.98,716.87,616.75z M779.64,821.96
		c-11.28,27.17-31.85,180.56-26.11,191.02C774.55,950.42,787.14,887.54,779.64,821.96z M475.44,932.51
		c17-33.19,40.21-140.45,38.43-175.63C500.06,766.58,468.91,905.7,475.44,932.51z M1274.41,908.94c1.52,0.32,3.03,0.65,4.55,0.97
		c2.96-11.2,5.95-22.39,8.89-33.6c10-38.12,20.16-76.2,29.91-114.38c5.78-22.66,11.1-45.45,16.13-68.29
		c0.98-4.44-0.38-9.4-0.65-14.12c-1.86-0.22-3.72-0.43-5.58-0.65C1306.73,754.83,1289.4,831.61,1274.41,908.94z M585.31,799.39
		c1.1,0.18,2.21,0.36,3.31,0.54c0.99-2.17,2.26-4.25,2.91-6.51c6.08-21.23,12.6-42.35,17.89-63.78c4.04-16.38,7.1-33.08,9.16-49.82
		c0.48-3.93-4.81-8.56-7.45-12.87c-2.73,3.19-7.25,6.06-7.9,9.63c-6.57,36.22-12.6,72.53-18.48,108.87
		C584.02,789.95,585.08,794.74,585.31,799.39z M1053.72,848.74c16.99-33.97,24.3-70.3,27.95-107.54
		C1065.66,775.36,1057.22,811.44,1053.72,848.74z M1194.53,656.28c-10.55-12.6-49.37-13.62-57.66-2.85
		c-1.25,1.63,1.86,9.76,3.36,9.88C1158.23,664.78,1176.41,665.86,1194.53,656.28z M1328.23,628.68
		c34.05,13.79,66.79,12.52,99.63,9.73c0.08-1.26,0.16-2.52,0.24-3.77C1395.64,632.69,1363.18,630.76,1328.23,628.68z M832.94,1066.2
		c6.84-11.33,13.68-22.65,21.1-34.93C838.91,1028.69,826.67,1048.13,832.94,1066.2z M1297.78,671.78c-0.11-1.44-0.21-2.88-0.32-4.31
		c-11.19,1.74-23.35-3.86-33.74,3.86c0.19,1.62,0.39,3.24,0.58,4.86C1275.46,674.72,1286.62,673.25,1297.78,671.78z"/>
	<path d="M1667.95,692.31c0.29-0.22,1.96-1.47,3.62-2.74c13.2-10.08,27.17-6.09,30.68,10.35c3.24,15.19,5.1,31,5.01,46.53
		c-0.58,97.09-2.51,194.17-2.68,291.26c-0.08,49.16,2.76,98.33,3.88,147.5c0.2,8.61-0.99,17.37-2.71,25.83
		c-0.62,3.05-4.27,6.73-7.28,7.61c-1.93,0.56-5.26-3.4-7.84-5.48c-2.67-2.15-5.19-4.47-7.77-6.72c-1.93,3.59-5.06,7.03-5.54,10.8
		c-1.14,9.04-0.11,18.4-1.69,27.32c-1.56,8.81-3.74,18.26-8.58,25.47c-3,4.47-12.1,8.12-17.28,6.94
		c-5.22-1.19-12.75-8.81-12.74-13.6c0.03-29.31-5.95-59.07,4.57-87.89c1.45-3.96,1.49-8.57,1.55-12.88
		c0.22-15.24,0.1-30.47,0.22-45.71c0.32-41.87-7-82.08-21.89-121.46c-10.09-26.67-16.37-54.79-24.12-82.33
		c-4.93-17.49-9.29-35.14-14.29-52.61c-0.7-2.45-3.46-5.67-5.6-5.94c-1.89-0.24-5.31,2.7-6.21,4.97
		c-3.52,8.85-6.27,18.01-9.38,27.02c-10.18,29.49-19.39,59.35-30.84,88.34c-14.14,35.83-29.78,71.08-45.54,106.23
		c-4.76,10.61-12.32,19.93-18.17,30.09c-5.7,9.9-14.15,12.91-24.36,9.48c-9.62-3.23-15.55-1.47-21.46,7.44
		c-3.48,5.25-11.35,7.58-17.24,11.23c-3.62-6.83-10.94-14.12-10.16-20.41c2.22-17.91,6.83-35.69,12.17-53
		c9.58-31.07,19.16-62.23,30.99-92.48c13.71-35.08,29.97-69.16,44.89-103.78c26.77-62.11,53.94-124.06,79.74-186.58
		c9.39-22.75,15.27-46.95,22.88-70.45c1.61-4.96,3.27-10,5.72-14.57c7.16-13.32,22.27-14.08,29.19-0.89
		C1636.14,628.56,1651.8,660.34,1667.95,692.31z M1664.27,716.55c-2.29-0.92-4.58-1.84-6.88-2.77c-2.41,5.09-5.14,10.08-6.81,15.41
		c-0.22,0.69,5.11,3.12,7.87,4.74C1660.4,728.13,1662.34,722.34,1664.27,716.55z"/>
</g>
</svg>
